<?xml version="1.0" standalone="no"?><svg xmlns="http://www.w3.org/2000/svg" viewBox="0 0 1440 320"><path fill="#a2d9ff" fill-opacity="1" d="M0,128L40,154.7C80,181,160,235,240,240C320,245,400,203,480,197.3C560,192,640,224,720,208C800,192,880,128,960,133.3C1040,139,1120,213,1200,218.7C1280,224,1360,160,1400,128L1440,96L1440,320L1400,320C1360,320,1280,320,1200,320C1120,320,1040,320,960,320C880,320,800,320,720,320C640,320,560,320,480,320C400,320,320,320,240,320C160,320,80,320,40,320L0,320Z"></path></svg>