<?xml version="1.0" standalone="no"?><svg xmlns="http://www.w3.org/2000/svg" viewBox="0 0 1440 320"><path fill="#984be6" fill-opacity="1" d="M0,160L34.3,144C68.6,128,137,96,206,74.7C274.3,53,343,43,411,85.3C480,128,549,224,617,250.7C685.7,277,754,235,823,218.7C891.4,203,960,213,1029,218.7C1097.1,224,1166,224,1234,192C1302.9,160,1371,96,1406,64L1440,32L1440,320L1405.7,320C1371.4,320,1303,320,1234,320C1165.7,320,1097,320,1029,320C960,320,891,320,823,320C754.3,320,686,320,617,320C548.6,320,480,320,411,320C342.9,320,274,320,206,320C137.1,320,69,320,34,320L0,320Z"></path></svg>