<?xml version="1.0" standalone="no"?>
<svg xmlns:xlink="http://www.w3.org/1999/xlink" id="wave" style="transform:rotate(180deg); transition: 0.3s" viewBox="0 0 1440 240" version="1.1" xmlns="http://www.w3.org/2000/svg"><defs><linearGradient id="sw-gradient-0" x1="0" x2="0" y1="1" y2="0"><stop stop-color="rgba(219.115, 245.398, 246.32, 1)" offset="0%"/><stop stop-color="rgba(117.888, 201.309, 244.043, 1)" offset="100%"/></linearGradient></defs><path style="transform:translate(0, 0px); opacity:1" fill="url(#sw-gradient-0)" d="M0,144L30,152C60,160,120,176,180,152C240,128,300,64,360,60C420,56,480,112,540,144C600,176,660,184,720,156C780,128,840,64,900,56C960,48,1020,96,1080,104C1140,112,1200,80,1260,92C1320,104,1380,160,1440,184C1500,208,1560,200,1620,192C1680,184,1740,176,1800,168C1860,160,1920,152,1980,132C2040,112,2100,80,2160,92C2220,104,2280,160,2340,172C2400,184,2460,152,2520,124C2580,96,2640,72,2700,72C2760,72,2820,96,2880,124C2940,152,3000,184,3060,196C3120,208,3180,200,3240,168C3300,136,3360,80,3420,80C3480,80,3540,136,3600,148C3660,160,3720,128,3780,116C3840,104,3900,112,3960,132C4020,152,4080,184,4140,196C4200,208,4260,200,4290,196L4320,192L4320,240L4290,240C4260,240,4200,240,4140,240C4080,240,4020,240,3960,240C3900,240,3840,240,3780,240C3720,240,3660,240,3600,240C3540,240,3480,240,3420,240C3360,240,3300,240,3240,240C3180,240,3120,240,3060,240C3000,240,2940,240,2880,240C2820,240,2760,240,2700,240C2640,240,2580,240,2520,240C2460,240,2400,240,2340,240C2280,240,2220,240,2160,240C2100,240,2040,240,1980,240C1920,240,1860,240,1800,240C1740,240,1680,240,1620,240C1560,240,1500,240,1440,240C1380,240,1320,240,1260,240C1200,240,1140,240,1080,240C1020,240,960,240,900,240C840,240,780,240,720,240C660,240,600,240,540,240C480,240,420,240,360,240C300,240,240,240,180,240C120,240,60,240,30,240L0,240Z"/><defs><linearGradient id="sw-gradient-1" x1="0" x2="0" y1="1" y2="0"><stop stop-color="rgba(196.604, 229.284, 255, 1)" offset="0%"/><stop stop-color="rgba(125.702, 132.033, 248.597, 1)" offset="100%"/></linearGradient></defs><path style="transform:translate(0, 50px); opacity:0.9" fill="url(#sw-gradient-1)" d="M0,48L30,52C60,56,120,64,180,76C240,88,300,104,360,112C420,120,480,120,540,104C600,88,660,56,720,56C780,56,840,88,900,116C960,144,1020,168,1080,160C1140,152,1200,112,1260,104C1320,96,1380,120,1440,112C1500,104,1560,64,1620,48C1680,32,1740,40,1800,52C1860,64,1920,80,1980,72C2040,64,2100,32,2160,24C2220,16,2280,32,2340,56C2400,80,2460,112,2520,132C2580,152,2640,160,2700,156C2760,152,2820,136,2880,136C2940,136,3000,152,3060,136C3120,120,3180,72,3240,52C3300,32,3360,40,3420,36C3480,32,3540,16,3600,36C3660,56,3720,112,3780,140C3840,168,3900,168,3960,152C4020,136,4080,104,4140,88C4200,72,4260,72,4290,72L4320,72L4320,240L4290,240C4260,240,4200,240,4140,240C4080,240,4020,240,3960,240C3900,240,3840,240,3780,240C3720,240,3660,240,3600,240C3540,240,3480,240,3420,240C3360,240,3300,240,3240,240C3180,240,3120,240,3060,240C3000,240,2940,240,2880,240C2820,240,2760,240,2700,240C2640,240,2580,240,2520,240C2460,240,2400,240,2340,240C2280,240,2220,240,2160,240C2100,240,2040,240,1980,240C1920,240,1860,240,1800,240C1740,240,1680,240,1620,240C1560,240,1500,240,1440,240C1380,240,1320,240,1260,240C1200,240,1140,240,1080,240C1020,240,960,240,900,240C840,240,780,240,720,240C660,240,600,240,540,240C480,240,420,240,360,240C300,240,240,240,180,240C120,240,60,240,30,240L0,240Z"/><defs><linearGradient id="sw-gradient-2" x1="0" x2="0" y1="1" y2="0"><stop stop-color="rgba(59.402, 95.636, 253.15, 1)" offset="0%"/><stop stop-color="rgba(148.923, 81.431, 255, 0.63)" offset="100%"/></linearGradient></defs><path style="transform:translate(0, 100px); opacity:0.8" fill="url(#sw-gradient-2)" d="M0,120L30,128C60,136,120,152,180,148C240,144,300,120,360,92C420,64,480,32,540,52C600,72,660,144,720,156C780,168,840,120,900,84C960,48,1020,24,1080,40C1140,56,1200,112,1260,132C1320,152,1380,136,1440,140C1500,144,1560,168,1620,156C1680,144,1740,96,1800,68C1860,40,1920,32,1980,36C2040,40,2100,56,2160,56C2220,56,2280,40,2340,40C2400,40,2460,56,2520,84C2580,112,2640,152,2700,160C2760,168,2820,144,2880,120C2940,96,3000,72,3060,88C3120,104,3180,160,3240,172C3300,184,3360,152,3420,120C3480,88,3540,56,3600,44C3660,32,3720,40,3780,64C3840,88,3900,128,3960,152C4020,176,4080,184,4140,168C4200,152,4260,112,4290,92L4320,72L4320,240L4290,240C4260,240,4200,240,4140,240C4080,240,4020,240,3960,240C3900,240,3840,240,3780,240C3720,240,3660,240,3600,240C3540,240,3480,240,3420,240C3360,240,3300,240,3240,240C3180,240,3120,240,3060,240C3000,240,2940,240,2880,240C2820,240,2760,240,2700,240C2640,240,2580,240,2520,240C2460,240,2400,240,2340,240C2280,240,2220,240,2160,240C2100,240,2040,240,1980,240C1920,240,1860,240,1800,240C1740,240,1680,240,1620,240C1560,240,1500,240,1440,240C1380,240,1320,240,1260,240C1200,240,1140,240,1080,240C1020,240,960,240,900,240C840,240,780,240,720,240C660,240,600,240,540,240C480,240,420,240,360,240C300,240,240,240,180,240C120,240,60,240,30,240L0,240Z"/></svg>